<svg width="80" height="80" viewBox="0 0 80 80" fill="none" xmlns="http://www.w3.org/2000/svg">
<path d="M1.944 60.248V71.448H0V60.248H1.944Z" fill="#FAFBFC"/>
<path d="M17.1683 70.536C16.8256 70.7542 16.4642 70.9416 16.0884 71.096C15.6816 71.2581 15.2613 71.384 14.8324 71.472C14.3712 71.5629 13.9023 71.6084 13.4324 71.608C12.6113 71.6196 11.7959 71.4701 11.0324 71.168C10.3447 70.8926 9.72116 70.4787 9.20035 69.952C8.68934 69.4311 8.29166 68.81 8.03235 68.128C7.74954 67.4015 7.60834 66.6275 7.61635 65.848C7.60916 65.0833 7.75326 64.3247 8.04035 63.616C8.46657 62.5534 9.20438 61.6446 10.1568 61.0092C11.1092 60.3738 12.2315 60.0415 13.3763 60.056C13.8212 60.0513 14.2656 60.0861 14.7043 60.16C15.0831 60.2253 15.4552 60.3244 15.8164 60.456C16.1499 60.5841 16.4712 60.7421 16.7763 60.928C17.0899 61.1189 17.3869 61.3356 17.6643 61.576L16.4164 63.056C16.2113 62.8768 15.9948 62.7112 15.7683 62.56C15.5451 62.4143 15.3095 62.2885 15.0643 62.184C14.8044 62.0832 14.5369 62.003 14.2643 61.944C13.9479 61.884 13.6264 61.8545 13.3043 61.856C12.8097 61.852 12.3205 61.9586 11.8724 62.168C11.437 62.3729 11.0478 62.6641 10.7284 63.024C10.3856 63.3921 10.1143 63.8207 9.92835 64.288C9.7411 64.7783 9.64617 65.2991 9.64835 65.824C9.64227 66.3693 9.7344 66.9113 9.92035 67.424C10.0979 67.8955 10.3701 68.3257 10.7204 68.688C11.0582 69.034 11.4641 69.3064 11.9124 69.488C12.4171 69.7047 12.9632 69.8085 13.5123 69.792C14.0102 69.8094 14.5076 69.7445 14.9843 69.6C15.4163 69.464 15.8221 69.2557 16.1843 68.984V66.88H13.3364V65.176H18.0884V69.864C17.7975 70.1089 17.4901 70.3334 17.1683 70.536Z" fill="#FAFBFC"/>
<path d="M32.0885 62.016H25.7765V64.888H31.3765V66.656H25.7765V69.64H32.1765V71.416H23.8245V60.216H32.0885V62.016Z" fill="#FAFBFC"/>
<path d="M43.2 68.672H43.136L39.648 63.44V71.44H37.704V60.24H39.792L43.2 65.528L46.592 60.248H48.688V71.448H46.728V63.448L43.2 68.672Z" fill="#FAFBFC"/>
<path d="M65.4244 71.416H63.3524L62.2164 68.72H56.9364L55.7924 71.416H53.7844L58.6884 60.168H60.5124L65.4244 71.416ZM59.5684 62.512L57.6564 66.976H61.4964L59.5684 62.512Z" fill="#FAFBFC"/>
<path d="M77.688 71.416L74.9359 67.52H72.4719V71.416H70.528V60.216H75.5039C76.0894 60.2078 76.6725 60.2915 77.232 60.464C77.7113 60.6101 78.1572 60.8493 78.544 61.168C78.8911 61.4735 79.1646 61.8537 79.344 62.28C79.5413 62.7481 79.6394 63.2521 79.632 63.76C79.6397 64.1846 79.572 64.6071 79.432 65.008C79.3109 65.3651 79.1237 65.6963 78.8799 65.984C78.6527 66.2645 78.3827 66.5075 78.0799 66.704C77.7419 66.9015 77.3786 67.0522 77 67.152L80 71.416H77.688ZM77.0479 62.488C76.5449 62.1464 75.943 61.9804 75.3359 62.016H72.4719V65.784H75.352C75.9549 65.8175 76.5502 65.6361 77.032 65.272C77.2357 65.1069 77.3982 64.8966 77.5065 64.6577C77.6148 64.4189 77.666 64.1581 77.656 63.896C77.6743 63.6298 77.6287 63.3631 77.5229 63.1182C77.4171 62.8732 77.2543 62.6572 77.0479 62.488Z" fill="#FAFBFC"/>
<path d="M51.2878 53.528H14.8798V23.072H16.8718V51.528H49.2958V19.104H20.8398V17.112H51.2878V53.528Z" fill="#FAFBFC"/>
<path d="M65.1997 44.808H28.7917V29.608H39.4717V31.6H30.7837V42.816H63.2077V10.392H30.7837V18.112H28.7917V8.39197H65.1997V44.808Z" fill="#FAFBFC"/>
<path d="M15.8726 21.288C15.2397 21.288 14.621 21.1004 14.0948 20.7487C13.5685 20.3971 13.1584 19.8973 12.9162 19.3126C12.674 18.7279 12.6106 18.0845 12.7341 17.4637C12.8576 16.843 13.1623 16.2728 13.6099 15.8253C14.0574 15.3778 14.6276 15.073 15.2483 14.9495C15.8691 14.826 16.5125 14.8894 17.0972 15.1316C17.6819 15.3738 18.1817 15.784 18.5333 16.3102C18.8849 16.8364 19.0726 17.4551 19.0726 18.088C19.0726 18.9367 18.7355 19.7507 18.1354 20.3508C17.5352 20.9509 16.7213 21.288 15.8726 21.288ZM15.8726 16.928C15.6384 16.928 15.4095 16.9975 15.2148 17.1276C15.0201 17.2577 14.8683 17.4426 14.7787 17.6589C14.6891 17.8753 14.6657 18.1133 14.7114 18.343C14.757 18.5727 14.8698 18.7837 15.0354 18.9492C15.201 19.1148 15.4119 19.2276 15.6416 19.2733C15.8713 19.319 16.1094 19.2955 16.3257 19.2059C16.5421 19.1163 16.727 18.9645 16.8571 18.7698C16.9872 18.5751 17.0566 18.3462 17.0566 18.112C17.0577 17.9562 17.0278 17.8018 16.9686 17.6577C16.9095 17.5136 16.8224 17.3826 16.7122 17.2724C16.602 17.1623 16.4711 17.0751 16.327 17.016C16.1828 16.9569 16.0284 16.927 15.8726 16.928Z" fill="#FAFBFC"/>
</svg>
