<svg width="73" height="72" viewBox="0 0 73 72" fill="none" xmlns="http://www.w3.org/2000/svg">
<mask id="mask0_238_42" style="mask-type:alpha" maskUnits="userSpaceOnUse" x="0" y="0" width="73" height="72">
<rect x="0.783203" width="72" height="72" fill="#D9D9D9"/>
</mask>
<g mask="url(#mask0_238_42)">
<path d="M47.2832 59.775L34.5332 47.025L38.7332 42.825L47.2832 51.375L64.2332 34.425L68.4332 38.625L47.2832 59.775ZM63.7832 30H57.7832V15H51.7832V24H21.7832V15H15.7832V57H33.7832V63H15.7832C14.1332 63 12.7207 62.4125 11.5457 61.2375C10.3707 60.0625 9.7832 58.65 9.7832 57V15C9.7832 13.35 10.3707 11.9375 11.5457 10.7625C12.7207 9.5875 14.1332 9 15.7832 9H28.3082C28.8582 7.25 29.9332 5.8125 31.5332 4.6875C33.1332 3.5625 34.8832 3 36.7832 3C38.7832 3 40.5707 3.5625 42.1457 4.6875C43.7207 5.8125 44.7832 7.25 45.3332 9H57.7832C59.4332 9 60.8457 9.5875 62.0207 10.7625C63.1957 11.9375 63.7832 13.35 63.7832 15V30ZM36.7832 15C37.6332 15 38.3457 14.7125 38.9207 14.1375C39.4957 13.5625 39.7832 12.85 39.7832 12C39.7832 11.15 39.4957 10.4375 38.9207 9.8625C38.3457 9.2875 37.6332 9 36.7832 9C35.9332 9 35.2207 9.2875 34.6457 9.8625C34.0707 10.4375 33.7832 11.15 33.7832 12C33.7832 12.85 34.0707 13.5625 34.6457 14.1375C35.2207 14.7125 35.9332 15 36.7832 15Z" fill="#0E2537"/>
</g>
</svg>
