<svg width="72" height="72" viewBox="0 0 72 72" fill="none" xmlns="http://www.w3.org/2000/svg">
<mask id="mask0_239_64" style="mask-type:alpha" maskUnits="userSpaceOnUse" x="0" y="0" width="72" height="72">
<rect width="72" height="72" fill="#D9D9D9"/>
</mask>
<g mask="url(#mask0_239_64)">
<path d="M27.6 27.6L34.275 16.575L29.85 9.225C29.25 8.225 28.3875 7.725 27.2625 7.725C26.1375 7.725 25.275 8.225 24.675 9.225L17.325 21.45L27.6 27.6ZM56.625 48L49.95 36.9L60.375 30.9L65.175 38.925C65.725 39.775 66.025 40.725 66.075 41.775C66.125 42.825 65.9 43.8 65.4 44.7C64.9 45.7 64.1625 46.5 63.1875 47.1C62.2125 47.7 61.15 48 60 48H56.625ZM48 69L36 57L48 45V51H62.25L57.9 59.7C57.35 60.7 56.6 61.5 55.65 62.1C54.7 62.7 53.65 63 52.5 63H48V69ZM18.975 63C17.975 63 17.0625 62.7375 16.2375 62.2125C15.4125 61.6875 14.8 61 14.4 60.15C14 59.35 13.8125 58.5125 13.8375 57.6375C13.8625 56.7625 14.1 55.95 14.55 55.2L17.1 51H30V63H18.975ZM11.55 54.45L6.675 44.7C6.225 43.8 6.0125 42.8375 6.0375 41.8125C6.0625 40.7875 6.35 39.825 6.9 38.925L8.1 36.9L3 33.825L19.425 29.7L23.55 46.2L18.375 43.05L11.55 54.45ZM52.05 28.8L35.625 24.675L40.8 21.6L31.425 6H42C43.05 6 44.0375 6.2625 44.9625 6.7875C45.8875 7.3125 46.625 8.025 47.175 8.925L51.075 15.45L56.175 12.3L52.05 28.8Z" fill="#0E2537"/>
</g>
</svg>
