<svg width="72" height="72" viewBox="0 0 72 72" fill="none" xmlns="http://www.w3.org/2000/svg">
<mask id="mask0_238_58" style="mask-type:alpha" maskUnits="userSpaceOnUse" x="0" y="0" width="72" height="72">
<rect width="72" height="72" fill="#D9D9D9"/>
</mask>
<g mask="url(#mask0_238_58)">
<path d="M45 60C38.3 60 32.625 57.675 27.975 53.025C23.325 48.375 21 42.7 21 36C21 29.35 23.325 23.6875 27.975 19.0125C32.625 14.3375 38.3 12 45 12C51.65 12 57.3125 14.3375 61.9875 19.0125C66.6625 23.6875 69 29.35 69 36C69 42.7 66.6625 48.375 61.9875 53.025C57.3125 57.675 51.65 60 45 60ZM45 54C50 54 54.25 52.25 57.75 48.75C61.25 45.25 63 41 63 36C63 31 61.25 26.75 57.75 23.25C54.25 19.75 50 18 45 18C40 18 35.75 19.75 32.25 23.25C28.75 26.75 27 31 27 36C27 41 28.75 45.25 32.25 48.75C35.75 52.25 40 54 45 54ZM51.825 47.175L56.1 42.9L48 34.8V24H42V37.275L51.825 47.175ZM6 27V21H18V27H6ZM3 39V33H18V39H3ZM6 51V45H18V51H6Z" fill="#0E2537"/>
</g>
</svg>
